# xmcd
#
# Track frame offsets:
#	150
#	11971
#	21650
#	31432
#	40772
#	50560
#	58954
#	69943
#	79233
#	89309
#	99814
#	109016
#	118661
#	129331
#	140432
#	150667
#	161166
#	173656
#	182307
#	193024
#
# Disc length: 2717 seconds
#
# Revision: 0
# Processed by: cddbd v1.5.2PL0 Copyright (c) Steve Scherf et al.
# Submitted via: EasyCDDAExtractor 2010.6.0.0
#
DISCID=0b0a9b14
DTITLE=Fats Domino - I'm Ready
DYEAR=1900
DGENRE=Rock and Roll
TTITLE0=I'll Be Glad When You're Dead You Rascal You
TTITLE1=Howdy Podner
TTITLE2=Ida James
TTITLE3=Hands Across The Table
TTITLE4=Stack And Billy
TTITLE5=Lil' Liza Jane
TTITLE6=When The Saints Go Marching In
TTITLE7=I'm Ready
TTITLE8=Margie
TTITLE9=I Want To Walk You Home
TTITLE10=I'm Gonna Be A Wheel Someday
TTITLE11=I've Been Around
TTITLE12=Telling Lies
TTITLE13=Coquette
TTITLE14=Be My Guest
TTITLE15=Dreaming
TTITLE16=Swanee River Hop
TTITLE17=Domino Stomp
TTITLE18=Fat's Frenzy
TTITLE19=Fat Man's Hop
EXTD=
EXTT0=
EXTT1=
EXTT2=
EXTT3=
EXTT4=
EXTT5=
EXTT6=
EXTT7=
EXTT8=
EXTT9=
EXTT10=
EXTT11=
EXTT12=
EXTT13=
EXTT14=
EXTT15=
EXTT16=
EXTT17=
EXTT18=
EXTT19=
PLAYORDER=
